<svg width="20" height="14" viewBox="0 0 20 14" fill="none" xmlns="http://www.w3.org/2000/svg">
<path d="M16.7812 6.09375C16.9062 5.75 17 5.40625 17 5C17 3.34375 15.6562 2 14 2C13.375 2 12.7812 2.1875 12.3125 2.53125C11.4688 1.03125 9.84375 0 8 0C5.21875 0 3 2.25 3 5C3 5.09375 3 5.1875 3 5.28125C1.25 5.875 0 7.5625 0 9.5C0 12 2 14 4.5 14H16C18.1875 14 20 12.2188 20 10C20 8.09375 18.625 6.46875 16.7812 6.09375ZM12.625 8.875L9.34375 12.1562C9.15625 12.3438 8.8125 12.3438 8.625 12.1562L5.34375 8.875C5.03125 8.5625 5.25 8 5.6875 8H7.75V4.5C7.75 4.25 7.96875 4 8.25 4H9.75C10 4 10.25 4.25 10.25 4.5V8H12.2812C12.7188 8 12.9375 8.5625 12.625 8.875Z" fill="white"/>
</svg>
