<svg width="50" height="70" viewBox="0 0 50 70" fill="none" xmlns="http://www.w3.org/2000/svg">
<path d="M49.6 13.757L45.078 64.37L24.77 70L4.517 64.378L0 13.757H49.6Z" fill="#264DE4"/>
<path d="M41.21 61.147L45.071 17.9H24.8V65.7L41.21 61.147Z" fill="#2965F1"/>
<path d="M10.35 36.67L10.906 42.878H24.8V36.67H10.35Z" fill="#EBEBEB"/>
<path d="M24.8 24.1H9.232L9.8 30.313H24.8V24.1Z" fill="#EBEBEB"/>
<path d="M24.8 59.254V52.794L24.773 52.801L17.859 50.934L17.417 45.982H11.184L12.054 55.73L24.772 59.26L24.8 59.254Z" fill="#EBEBEB"/>
<path d="M11.675 0H19.195V3.145H14.82V6.289H19.195V9.434H11.675V0Z" fill="black"/>
<path d="M20.7 0H28.22V2.734H23.843V3.281H28.218V9.57H20.7V6.7H25.075V6.152H20.7V0Z" fill="black"/>
<path d="M29.722 0H37.242V2.734H32.866V3.281H37.241V9.57H29.721V6.7H34.1V6.152H29.722V0Z" fill="black"/>
<path d="M32.424 42.879L31.7 50.931L24.779 52.8V59.259L37.507 55.732L37.6 54.683L39.059 38.338L39.21 36.671L40.331 24.1H24.779V30.309H33.527L32.962 36.667H24.779V42.875L32.424 42.879Z" fill="white"/>
</svg>
