<svg width="61" height="60" viewBox="0 0 61 60" fill="none" xmlns="http://www.w3.org/2000/svg">
<path d="M19.9805 47.9453C19.9805 47.7031 19.7383 47.4609 19.375 47.4609C19.0117 47.4609 18.7695 47.7031 18.7695 47.9453C18.7695 48.1875 19.0117 48.4297 19.375 48.3086C19.7383 48.3086 19.9805 48.1875 19.9805 47.9453ZM16.2266 47.3398C16.2266 47.582 16.4688 47.9453 16.832 47.9453C17.0742 48.0664 17.4375 47.9453 17.5586 47.7031C17.5586 47.4609 17.4375 47.2188 17.0742 47.0977C16.7109 46.9766 16.3477 47.0977 16.2266 47.3398ZM21.6758 47.2188C21.3125 47.2188 21.0703 47.4609 21.0703 47.8242C21.0703 48.0664 21.4336 48.1875 21.7969 48.0664C22.1602 47.9453 22.4023 47.8242 22.2812 47.582C22.2812 47.3398 21.918 47.0977 21.6758 47.2188ZM29.5469 0.71875C12.8359 0.71875 0 13.5547 0 30.2656C0 43.707 8.35547 55.2109 20.4648 59.3281C22.0391 59.5703 22.5234 58.6016 22.5234 57.875C22.5234 57.0273 22.5234 52.9102 22.5234 50.3672C22.5234 50.3672 14.0469 52.1836 12.2305 46.7344C12.2305 46.7344 10.8984 43.2227 8.96094 42.375C8.96094 42.375 6.17578 40.4375 9.08203 40.4375C9.08203 40.4375 12.1094 40.6797 13.8047 43.5859C16.4688 48.3086 20.8281 46.9766 22.6445 46.1289C22.8867 44.1914 23.6133 42.8594 24.582 42.0117C17.8008 41.2852 10.8984 40.3164 10.8984 28.6914C10.8984 25.3008 11.8672 23.7266 13.8047 21.5469C13.4414 20.6992 12.4727 17.5508 14.168 13.3125C16.5898 12.5859 22.5234 16.582 22.5234 16.582C24.9453 15.8555 27.4883 15.6133 30.0312 15.6133C32.6953 15.6133 35.2383 15.8555 37.6602 16.582C37.6602 16.582 43.4727 12.4648 46.0156 13.3125C47.7109 17.5508 46.6211 20.6992 46.3789 21.5469C48.3164 23.7266 49.5273 25.3008 49.5273 28.6914C49.5273 40.3164 42.3828 41.2852 35.6016 42.0117C36.6914 42.9805 37.6602 44.7969 37.6602 47.7031C37.6602 51.6992 37.5391 56.7852 37.5391 57.7539C37.5391 58.6016 38.1445 59.5703 39.7188 59.207C51.8281 55.2109 60.0625 43.707 60.0625 30.2656C60.0625 13.5547 46.3789 0.71875 29.5469 0.71875ZM11.7461 42.4961C11.5039 42.6172 11.625 42.9805 11.7461 43.2227C11.9883 43.3438 12.2305 43.4648 12.4727 43.3438C12.5938 43.2227 12.5938 42.8594 12.3516 42.6172C12.1094 42.4961 11.8672 42.375 11.7461 42.4961ZM10.4141 41.5273C10.293 41.7695 10.4141 41.8906 10.6562 42.0117C10.8984 42.1328 11.1406 42.1328 11.2617 41.8906C11.2617 41.7695 11.1406 41.6484 10.8984 41.5273C10.6562 41.4062 10.5352 41.4062 10.4141 41.5273ZM14.2891 45.8867C14.168 46.0078 14.168 46.3711 14.5312 46.6133C14.7734 46.8555 15.1367 46.9766 15.2578 46.7344C15.3789 46.6133 15.3789 46.25 15.1367 46.0078C14.8945 45.7656 14.5312 45.6445 14.2891 45.8867ZM12.957 44.0703C12.7148 44.1914 12.7148 44.5547 12.957 44.7969C13.1992 45.0391 13.4414 45.1602 13.6836 45.0391C13.8047 44.918 13.8047 44.5547 13.6836 44.3125C13.4414 44.0703 13.1992 43.9492 12.957 44.0703Z" fill="#3C4858"/>
</svg>
