<svg width="50" height="70" viewBox="0 0 50 70" fill="none" xmlns="http://www.w3.org/2000/svg">
<path d="M4.62 0H7.765V3.117H10.665V0H13.81V9.434H10.663V6.289H7.792V9.434H4.62V0ZM17.964 3.145H15.189V0H23.9V3.145H21.109V9.434H17.964V3.145ZM25.279 0H28.574L30.6 3.322L32.62 0H35.915V9.434H32.771V4.758L30.571 8.149L28.371 4.758V9.434H25.281L25.279 0ZM37.474 0H40.619V6.316H45.076V9.434H37.476" fill="black"/>
<path d="M4.511 64.395L0 13.754H49.6L45.089 64.367L24.759 70" fill="#E44D26"/>
<path d="M24.8 65.693V17.91H45.0751L41.206 61.11" fill="#F16529"/>
<path d="M9.21399 24.1H24.8V30.307H16.023L16.597 36.664H24.8V42.857H10.909L9.21399 24.1ZM11.182 45.974H17.416L17.854 50.937L24.8 52.8V59.28L12.058 55.727" fill="#EBEBEB"/>
<path d="M40.3309 24.1H24.7729V30.307H39.757L40.3309 24.1ZM39.2 36.668H24.7729V42.875H32.429L31.7 50.941L24.7729 52.8V59.253L37.4879 55.726" fill="white"/>
</svg>
