<svg width="55" height="55" viewBox="0 0 55 55" fill="none" xmlns="http://www.w3.org/2000/svg">
<path d="M12.1094 55V18.793H0.847656V55H12.1094ZM6.41797 13.9492C10.0508 13.9492 12.957 10.9219 12.957 7.28906C12.957 3.77734 10.0508 0.871094 6.41797 0.871094C2.90625 0.871094 0 3.77734 0 7.28906C0 10.9219 2.90625 13.9492 6.41797 13.9492ZM54.1289 55H54.25V35.1406C54.25 25.4531 52.0703 17.9453 40.6875 17.9453C35.2383 17.9453 31.6055 20.9727 30.0312 23.7578H29.9102V18.793H19.1328V55H30.3945V37.0781C30.3945 32.3555 31.2422 27.875 37.0547 27.875C42.8672 27.875 42.9883 33.2031 42.9883 37.4414V55H54.1289Z" fill="#3C4858"/>
</svg>
