<svg width="56" height="55" viewBox="0 0 56 55" fill="none" xmlns="http://www.w3.org/2000/svg">
<path d="M28.125 13.8242C20.375 13.8242 14.1992 20.1211 14.1992 27.75C14.1992 35.5 20.375 41.6758 28.125 41.6758C35.7539 41.6758 42.0508 35.5 42.0508 27.75C42.0508 20.1211 35.7539 13.8242 28.125 13.8242ZM28.125 36.832C23.1602 36.832 19.043 32.8359 19.043 27.75C19.043 22.7852 23.0391 18.7891 28.125 18.7891C33.0898 18.7891 37.0859 22.7852 37.0859 27.75C37.0859 32.8359 33.0898 36.832 28.125 36.832ZM45.8047 13.3398C45.8047 11.5234 44.3516 10.0703 42.5352 10.0703C40.7188 10.0703 39.2656 11.5234 39.2656 13.3398C39.2656 15.1562 40.7188 16.6094 42.5352 16.6094C44.3516 16.6094 45.8047 15.1562 45.8047 13.3398ZM55.0078 16.6094C54.7656 12.25 53.7969 8.375 50.6484 5.22656C47.5 2.07812 43.625 1.10938 39.2656 0.867188C34.7852 0.625 21.3438 0.625 16.8633 0.867188C12.5039 1.10938 8.75 2.07812 5.48047 5.22656C2.33203 8.375 1.36328 12.25 1.12109 16.6094C0.878906 21.0898 0.878906 34.5312 1.12109 39.0117C1.36328 43.3711 2.33203 47.125 5.48047 50.3945C8.75 53.543 12.5039 54.5117 16.8633 54.7539C21.3438 54.9961 34.7852 54.9961 39.2656 54.7539C43.625 54.5117 47.5 53.543 50.6484 50.3945C53.7969 47.125 54.7656 43.3711 55.0078 39.0117C55.25 34.5312 55.25 21.0898 55.0078 16.6094ZM49.1953 43.7344C48.3477 46.1562 46.4102 47.9727 44.1094 48.9414C40.4766 50.3945 32 50.0312 28.125 50.0312C24.1289 50.0312 15.6523 50.3945 12.1406 48.9414C9.71875 47.9727 7.90234 46.1562 6.93359 43.7344C5.48047 40.2227 5.84375 31.7461 5.84375 27.75C5.84375 23.875 5.48047 15.3984 6.93359 11.7656C7.90234 9.46484 9.71875 7.64844 12.1406 6.67969C15.6523 5.22656 24.1289 5.58984 28.125 5.58984C32 5.58984 40.4766 5.22656 44.1094 6.67969C46.4102 7.52734 48.2266 9.46484 49.1953 11.7656C50.6484 15.3984 50.2852 23.875 50.2852 27.75C50.2852 31.7461 50.6484 40.2227 49.1953 43.7344Z" fill="#3C4858"/>
</svg>
