<svg width="50" height="70" viewBox="0 0 50 70" fill="none" xmlns="http://www.w3.org/2000/svg">
<path d="M0.166992 13.679L0.174992 14.305C0.174992 14.649 1.17499 26.041 2.38999 39.619L4.59999 64.307L14.521 67.085C19.977 68.613 24.554 69.87 24.692 69.88C24.83 69.89 29.467 68.645 34.997 67.113C43.864 64.658 45.061 64.288 45.124 63.984C45.212 63.561 49.555 14.578 49.55 14.053V13.678H0.166992V13.679Z" fill="white"/>
<path d="M14.6 67.251L4.591 64.451L4.46 63.711C4.34 63.055 0 14.577 0 13.937C0 13.705 2.534 13.679 24.856 13.679C48.417 13.679 49.711 13.694 49.71 13.971C49.702 15.171 45.21 64.286 45.099 64.383C44.959 64.507 25.587 69.904 24.94 69.999C24.757 70.026 20.102 68.789 14.597 67.251H14.6ZM31.17 57.366C34.534 56.438 37.335 55.631 37.394 55.573C37.453 55.515 37.847 51.526 38.269 46.709C38.691 41.892 39.078 37.632 39.131 37.242L39.226 36.533H24.689V42.7H32.536L32.458 43.075C32.415 43.281 32.248 45.055 32.087 47.017C32.0385 48.282 31.8761 49.54 31.602 50.776C30.4425 51.2152 29.2556 51.5786 28.049 51.864L24.688 52.764V55.908C24.688 58.054 24.745 59.052 24.869 59.052C24.969 59.052 27.802 58.293 31.169 57.365L31.17 57.366ZM39.13 32.654C39.02 31.837 38.038 20.873 38.038 20.46C38.038 20.209 37.461 20.185 31.449 20.185H24.855V26.639L27.816 26.753C29.445 26.816 31.158 26.911 31.625 26.965L32.473 27.065L32.679 29.589C32.792 30.977 32.927 32.395 32.979 32.739L33.073 33.365H39.223L39.13 32.654Z" fill="#EAEBEC"/>
<path d="M14.518 67.0849L4.59999 64.3069L2.38999 39.6189C1.17599 26.0399 0.178992 14.648 0.174992 14.3L0.166992 13.674H49.544V14.049C49.544 14.573 45.206 63.556 45.118 63.9799C45.055 64.2799 43.858 64.654 34.991 67.109C29.461 68.6399 24.823 69.8849 24.686 69.8759C24.549 69.867 19.971 68.6089 14.515 67.0759L14.518 67.0849ZM31.174 57.485C34.603 56.532 37.458 55.673 37.517 55.576C37.576 55.479 37.986 51.2869 38.427 46.2589C38.868 41.2309 39.265 36.986 39.31 36.825C39.386 36.549 38.802 36.533 28.736 36.533H18.083L18.537 31.733C18.786 29.0949 18.997 26.933 19.004 26.922C19.011 26.911 20.575 26.864 22.479 26.811C25.7418 26.7194 29.007 26.8457 32.253 27.1889C32.333 27.2689 32.863 32.463 32.863 33.171C32.863 33.521 32.91 33.526 36.095 33.526H39.327L39.251 32.817C39.209 32.427 38.935 29.406 38.643 26.103L38.11 20.1L25.644 20.0569C15.727 20.0229 13.178 20.057 13.177 20.224C13.177 20.339 13.104 21.0719 13.015 21.8519C12.802 23.7389 11.176 41.973 11.176 42.476V42.8699H32.391L32.3 43.5C32.248 43.844 32.083 45.5889 31.934 47.3779C31.8686 48.5027 31.742 49.623 31.555 50.734C31.4 50.8829 25.155 52.5499 24.77 52.547C24.589 52.547 22.978 52.1469 21.189 51.653L17.936 50.763L17.817 49.3629C17.751 48.5929 17.652 47.4939 17.595 46.9199L17.495 45.8769H11.177L11.184 46.5029C11.197 47.6729 11.956 55.5529 12.066 55.6629C12.193 55.7899 24.316 59.1979 24.689 59.2109C24.827 59.2109 27.745 58.4399 31.175 57.486L31.174 57.485Z" fill="#F0BE25"/>
<path d="M14.518 67.0849L4.59999 64.3069L2.38999 39.6189C1.17599 26.0399 0.178992 14.648 0.174992 14.3L0.166992 13.674H49.544V14.049C49.544 14.573 45.206 63.556 45.118 63.9799C45.055 64.2799 43.858 64.654 34.991 67.109C29.461 68.6399 24.823 69.8849 24.686 69.8759C24.549 69.867 19.971 68.6089 14.515 67.0759L14.518 67.0849ZM33.018 63.3689C37.382 62.1689 41.035 61.095 41.135 60.992C41.291 60.831 45.06 19.523 45.045 18.141L45.04 17.6819H24.856V20.017H19.017C14.458 20.017 13.178 20.063 13.177 20.226C13.177 20.341 13.104 21.0729 13.015 21.8519C12.802 23.7389 11.176 41.973 11.176 42.476V42.8699H24.856V47.708C24.856 51.469 24.81 52.5449 24.647 52.542C24.532 52.542 22.975 52.1419 21.186 51.6479L17.933 50.7579L17.814 49.358C17.748 48.588 17.649 47.489 17.592 46.915L17.492 45.872H11.177L11.184 46.498C11.3383 49.582 11.6641 52.6551 12.16 55.7029C12.27 55.771 15.172 56.603 18.608 57.556L24.856 59.285V62.421C24.8184 63.4677 24.8565 64.5157 24.97 65.5569C25.033 65.5569 28.655 64.5719 33.019 63.368L33.018 63.3689ZM18.518 31.781C18.758 29.168 18.987 27 19.027 26.964C19.067 26.928 20.395 26.864 21.977 26.819L24.855 26.739V36.532H18.083L18.518 31.781Z" fill="#E4A126"/>
<path d="M15.848 7.757V6.172H20.348V0H23.517V9.342H15.848V7.757ZM25.023 8.091V6.839H27.108C27.8044 6.86991 28.5022 6.83845 29.193 6.745C29.193 6.693 28.255 5.634 27.108 4.391L25.023 2.131V0H33.7V2.492L31.664 2.539L29.628 2.586L31.748 4.869L33.868 7.152V9.342H25.022L25.023 8.091Z" fill="#0E0E0F"/>
</svg>
