<svg width="63" height="52" viewBox="0 0 63 52" fill="none" xmlns="http://www.w3.org/2000/svg">
<path d="M56.4785 13.5781C58.9395 11.7324 61.1543 9.51758 62.877 6.93359C60.6621 7.91797 58.0781 8.65625 55.4941 8.90234C58.2012 7.30273 60.1699 4.8418 61.1543 1.76562C58.6934 3.24219 55.8633 4.34961 53.0332 4.96484C50.5723 2.38086 47.25 0.904297 43.5586 0.904297C36.4219 0.904297 30.6387 6.6875 30.6387 13.8242C30.6387 14.8086 30.7617 15.793 31.0078 16.7773C20.3027 16.1621 10.7051 10.9941 4.30664 3.24219C3.19922 5.08789 2.58398 7.30273 2.58398 9.76367C2.58398 14.1934 4.79883 18.1309 8.36719 20.4688C6.27539 20.3457 4.18359 19.8535 2.46094 18.8691V18.9922C2.46094 25.2676 6.89062 30.4355 12.7969 31.666C11.8125 31.9121 10.582 32.1582 9.47461 32.1582C8.61328 32.1582 7.875 32.0352 7.01367 31.9121C8.61328 37.0801 13.4121 40.7715 19.0723 40.8945C14.6426 44.3398 9.10547 46.4316 3.07617 46.4316C1.96875 46.4316 0.984375 46.3086 0 46.1855C5.66016 49.877 12.4277 51.9688 19.8105 51.9688C43.5586 51.9688 56.4785 32.4043 56.4785 15.3008C56.4785 14.6855 56.4785 14.1934 56.4785 13.5781Z" fill="#3C4858"/>
</svg>
